<svg xmlns="http://www.w3.org/2000/svg" width="1117" height="1117" viewBox="0 0 1117 1117" version="1.1">
	<path d="M 9.700 18.250 C 20.133 74.309, 38.031 149.950, 54.125 206 C 90.076 331.206, 129.635 417.619, 171.012 461.331 L 179.082 469.856 172.291 473.557 C 154.534 483.234, 120.814 502.684, 105.513 512.074 C 82.617 526.126, 40.500 554.259, 40.500 555.500 C 40.500 556.790, 71.685 577.678, 99.656 595.125 C 120.833 608.333, 153.764 627.496, 172.808 637.694 L 182.117 642.678 175.145 648.381 C 138.347 678.487, 103.678 739.613, 70.718 832.500 C 45.989 902.192, 19.947 1002.224, 4.073 1088.500 C 2.353 1097.850, 0.709 1106.679, 0.421 1108.121 C -0.059 1110.528, 0.127 1110.703, 2.699 1110.258 C 34.457 1104.767, 98.216 1090.894, 142 1079.948 C 301.139 1040.162, 410.156 994.429, 461.331 945.988 L 469.856 937.918 473.557 944.709 C 483.234 962.466, 502.684 996.186, 512.074 1011.487 C 526.057 1034.270, 554.256 1076.500, 555.487 1076.500 C 559.104 1076.500, 615.063 986.434, 637.691 944.192 L 642.678 934.883 648.462 941.954 C 686.104 987.963, 775.753 1032.178, 909.318 1070.608 C 965.679 1086.824, 1033.683 1102.845, 1089.500 1113.056 C 1098.300 1114.665, 1106.673 1116.233, 1108.107 1116.539 L 1110.714 1117.096 1107.303 1098.798 C 1089.573 1003.681, 1060.877 895.118, 1033.478 819.500 C 1005.202 741.461, 975.576 686.321, 944.743 654.343 L 937.842 647.186 944.671 643.438 C 977.975 625.159, 984.081 621.642, 1010.341 605.612 C 1034.629 590.785, 1076.500 562.868, 1076.500 561.500 C 1076.500 560.950, 1067.429 554.425, 1056.342 547 C 1021.619 523.745, 987.854 503.219, 952.233 483.711 L 934.966 474.255 941.995 468.504 C 965.200 449.519, 991.430 412.119, 1011.775 369.010 C 1049.955 288.108, 1083.166 178.434, 1108.981 48 C 1117.705 3.926, 1117.375 5.934, 1115.792 6.460 C 1115.082 6.696, 1106.850 8.311, 1097.500 10.048 C 982.382 31.440, 858.220 66.267, 777 99.949 C 722.455 122.568, 680.685 147.133, 654.830 171.796 L 647.161 179.112 643.451 172.306 C 633.760 154.523, 614.318 120.818, 604.926 105.513 C 590.874 82.617, 562.741 40.500, 561.500 40.500 C 560.950 40.500, 554.425 49.575, 547 60.667 C 524.002 95.021, 502.883 129.759, 483.711 164.767 L 474.255 182.034 468.504 175.005 C 418.696 114.125, 277.222 56.295, 71 12.520 C 54.612 9.041, 8.058 -0, 6.534 -0 C 6.407 -0, 7.832 8.212, 9.700 18.250" stroke="none" fill="black" fill-rule="evenodd"/>
</svg>